<svg width="177" height="48" viewBox="0 0 177 48" fill="none" xmlns="http://www.w3.org/2000/svg">
<path fill-rule="evenodd" clip-rule="evenodd" d="M34.3632 38.9805L4.50961 9.12693L0 13.6365L34.3632 47.9998L54.927 27.4359C61.2033 21.1597 61.2033 10.9838 54.927 4.70752C48.6508 -1.56876 38.4749 -1.56877 32.1986 4.70752L19.5717 17.3344L35.4455 33.2082L39.9551 28.6986L28.5909 17.3344L36.7082 9.21713C40.4939 5.43143 46.6317 5.43143 50.4174 9.21713C54.2031 13.0028 54.2031 19.1406 50.4174 22.9263L34.3632 38.9805Z" fill="#E20935"/>
<path d="M129.414 22.0453L127.939 18.762H117.714L116.24 22.0453H112.568L122.726 0H122.927L133.086 22.0453H129.414ZM119.027 15.8539H126.626L122.833 7.41097L119.027 15.8539Z" fill="white"/>
<path d="M104.782 22.4071C101.231 22.4071 98.5369 20.7454 97.304 18.2527L99.9843 16.3363C100.949 18.0249 102.745 18.9898 104.822 18.9898C107.248 18.9898 109.084 17.8238 109.084 16.1755C109.084 14.1787 106.243 12.9725 103.723 11.887C101.19 10.7613 98.3761 9.44798 98.3761 6.05742C98.3761 2.51945 101.445 0.0535959 105.331 0.0535959C108.414 0.0535959 110.719 1.54115 111.603 3.9132L109.084 5.65538C108.414 4.19463 106.926 3.37714 105.358 3.37714C103.375 3.37714 101.793 4.61007 101.793 6.13783C101.793 7.82641 103.79 8.42947 106.417 9.55519C109.834 11.0561 112.488 12.7045 112.488 16.1085C112.488 19.9413 109.164 22.4071 104.782 22.4071Z" fill="white"/>
<path d="M90.9917 22.0453V0.442262H94.3823V22.0453H90.9917Z" fill="white"/>
<path d="M84.9478 0.442262H88.5796L78.609 22.4876H78.3812L68.4507 0.442262H72.0557L78.4884 15.0632L84.9478 0.442262Z" fill="white"/>
<path d="M169.989 48C167.107 48 164.769 46.4502 163.885 44.6829L165.747 42.5485C166.604 43.8672 168.208 44.7916 170.111 44.7916C171.457 44.7916 173.021 44.2342 173.021 42.9291C173.021 41.5969 171.213 41.0803 169.133 40.2102C167.392 39.4761 164.66 38.2526 164.66 35.3569C164.66 32.5428 167.324 30.6124 170.356 30.6124C172.83 30.6124 175.046 31.931 175.767 33.6032L173.51 35.4928C172.762 34.3509 171.539 33.8071 170.247 33.8071C168.969 33.8071 167.936 34.4053 167.936 35.3433C167.936 36.526 169.445 37.0155 171.457 37.8583C174.285 39.0954 176.297 40.2646 176.297 42.7796C176.297 45.9472 173.293 48 169.989 48Z" fill="white"/>
<path d="M156.653 33.6984C158.243 31.3465 160.663 30.5036 162.811 30.49L162.281 34.079C162.131 34.0654 161.968 34.0654 161.805 34.0654C159.453 34.0926 156.666 35.3161 156.666 40.4277V47.4562H153.39V31.1426H156.462L156.653 33.6984Z" fill="white"/>
<path d="M141.821 47.9728C137.022 47.9728 133.134 44.0847 133.134 39.2994C133.134 34.5141 137.022 30.626 141.821 30.626C146.593 30.626 150.467 34.5141 150.467 39.2994C150.467 44.0847 146.593 47.9728 141.821 47.9728ZM141.821 44.6829C144.785 44.6829 147.191 42.2766 147.191 39.2994C147.191 36.3222 144.785 33.9023 141.821 33.9023C138.83 33.9023 136.41 36.3222 136.41 39.2994C136.41 42.2766 138.83 44.6829 141.821 44.6829Z" fill="white"/>
<path d="M128.539 47.7281C125.847 47.7281 124.379 45.7841 124.379 42.1951V34.3373H122.204V31.3601H122.748C123.944 31.3601 124.596 30.6532 124.596 29.3753V27.975H127.655V31.1426H131.557V34.3373H127.655V42.1951C127.655 43.6905 128.253 44.5877 129.599 44.5877C130.129 44.5877 130.891 44.411 131.584 44.2071V47.2523C130.755 47.5242 129.504 47.7281 128.539 47.7281Z" fill="white"/>
<path d="M115.366 48C110.703 48 106.679 44.2615 106.679 39.2994C106.679 34.3509 110.689 30.5988 115.352 30.5988C117.35 30.5988 119.335 31.2921 120.817 32.5021L118.982 35.2346C118.125 34.4189 116.752 33.8751 115.352 33.8751C112.483 33.8751 109.955 36.1726 109.955 39.2994C109.955 42.4534 112.497 44.7237 115.352 44.7237C116.766 44.7237 118.152 44.1527 119.036 43.3234L121.021 45.9336C119.526 47.2523 117.446 48 115.366 48Z" fill="white"/>
<path d="M96.0884 47.9728C91.2895 47.9728 87.4014 44.0847 87.4014 39.2994C87.4014 34.5141 91.2895 30.626 96.0884 30.626C100.86 30.626 104.735 34.5141 104.735 39.2994C104.735 44.0847 100.86 47.9728 96.0884 47.9728ZM96.0884 44.6829C99.0521 44.6829 101.458 42.2766 101.458 39.2994C101.458 36.3222 99.0521 33.9023 96.0884 33.9023C93.0976 33.9023 90.6777 36.3222 90.6777 39.2994C90.6777 42.2766 93.0976 44.6829 96.0884 44.6829Z" fill="white"/>
<path d="M81.311 25.025H84.5057V47.4562H81.5149L81.3382 45.1859C80.0739 46.9668 78.1434 47.9864 75.7507 47.9864C70.8974 47.9864 67.7979 43.8264 67.7979 39.3266C67.7979 34.4597 71.2101 30.6396 75.7643 30.6396C78.089 30.6396 80.0331 31.632 81.311 33.3993V25.025ZM76.2809 44.6965C79.2038 44.6965 81.311 42.399 81.311 39.2994C81.311 36.091 79.0271 33.9159 76.2673 33.9159C73.3989 33.9159 71.0742 36.2406 71.0742 39.2858C71.0742 42.2358 73.2493 44.6965 76.2809 44.6965Z" fill="white"/>
</svg>
