<svg width="240" height="241" viewBox="0 0 240 241" fill="none" xmlns="http://www.w3.org/2000/svg">
<g id="Asset 10 2" clip-path="url(#clip0_143_14611)">
<g id="Illustration">
<g id="404 error">
<path id="Vector" d="M237.48 92.5701C226.742 38.0306 172.527 5.06621 127.025 0.862917C89.3273 -2.62086 43.634 6.88071 22.5181 41.8388C9.57982 63.2583 25.54 72.6905 16.5905 120.099C8.84329 161.131 -5.27759 175.915 3.31739 196.828C10.3438 213.925 26.3341 221.419 36.8313 226.588C78.2062 246.96 154.411 245.342 199.661 208.178C210.25 199.481 249.628 154.266 237.481 92.5701H237.48Z" fill="#16171A" fill-opacity="0.04"/>
<path id="Vector_2" d="M79.9671 51.5804C79.2725 53.4982 78.7426 55.4462 78.3881 57.4098L69.1613 59.4807L69.1521 68.1502L78.3881 70.2447C78.7439 72.2266 79.2646 74.1772 79.9436 76.0741L72.9773 82.4909L77.3036 90.0027L86.3368 87.2018C87.6241 88.7272 89.0527 90.1531 90.6108 91.4705L87.7876 100.508L95.2902 104.851L101.72 97.9004C103.638 98.595 105.586 99.1236 107.55 99.4794L109.62 108.708L118.29 108.717L120.384 99.4807C122.366 99.1249 124.317 98.6042 126.213 97.9252L132.629 104.891L140.141 100.565L137.34 91.532C138.866 90.246 140.292 88.8161 141.609 87.258L150.646 90.0812L154.989 82.5786L148.039 76.1487C148.733 74.2308 149.263 72.2829 149.618 70.3193L158.845 68.2484L158.854 59.5788L149.618 57.4844C149.262 55.5024 148.741 53.5519 148.062 51.6563L155.029 45.2395L150.702 37.7264L141.669 40.5273C140.382 39.0019 138.953 37.5759 137.395 36.2586L140.218 27.2214L132.716 22.8781L126.286 29.8287C124.368 29.134 122.42 28.6055 120.456 28.2497L118.385 19.0228L109.716 19.0137L107.621 28.2497C105.638 28.6055 103.689 29.1262 101.793 29.8051L95.3766 22.8389L87.8648 27.1652L90.6657 36.1984C89.1403 37.4857 87.7144 38.9142 86.397 40.4723L77.3598 37.6492L73.0166 45.1518L79.9671 51.5817V51.5804ZM94.6872 52.6858C100.862 42.0186 114.514 38.3753 125.182 44.55C135.849 50.7235 139.492 64.3774 133.317 75.0445C127.143 85.7117 113.49 89.3551 102.823 83.1803C92.1558 77.0069 88.5124 63.353 94.6872 52.6858Z" fill="white"/>
<g id="Group">
<path id="Vector_3" d="M158.119 229.624H109.774L84.822 185.949V224.095C84.822 230.061 89.1731 234.833 94.4466 234.833H158.119C159.146 234.833 160.067 234.115 160.067 233.088V231.38C160.067 230.353 159.146 229.624 158.119 229.624Z" fill="#16171A" fill-opacity="0.4"/>
<g id="Group_2">
<path id="Vector_4" d="M91.9126 199.672V221.305C91.9126 225.69 95.3885 229.192 99.7737 229.192H141.401V199.672H91.9126Z" fill="white"/>
<path id="Vector_5" d="M141.835 229.625H99.7737C95.1216 229.625 91.4783 225.97 91.4783 221.304V199.238H141.835V229.625ZM92.3469 200.106V221.304C92.3469 225.484 95.6096 228.757 99.7737 228.757H140.967V200.106H92.3469Z" fill="#16171A"/>
</g>
<g id="Group_3">
<path id="Vector_6" d="M222.9 201.667L19.9306 202.109C18.1566 202.109 16.6587 200.787 16.4324 199.025L0.26415 72.6725C-0.129623 69.5982 2.11135 66.6953 5.20528 66.6953L205.549 66.8772L222.9 201.667Z" fill="#16171A" fill-opacity="0.4"/>
<g id="Group_4">
<path id="Vector_7" d="M227.059 201.503H28.1439C26.3713 201.503 24.8734 200.179 24.6458 198.41L8.58088 73.1942C8.13478 69.7156 10.8284 66.6348 14.3161 66.6348H210.666C212.439 66.6348 213.937 67.9587 214.164 69.7274L230.559 197.502C230.831 199.624 229.188 201.503 227.061 201.503H227.059Z" fill="white"/>
<path id="Vector_8" d="M227.059 201.938H28.1437C26.1578 201.938 24.4702 200.445 24.2164 198.466L8.15025 73.2498C7.92001 71.4615 8.47077 69.6601 9.65993 68.31C10.8386 66.9704 12.5354 66.2012 14.3159 66.2012H210.666C212.652 66.2012 214.339 67.6938 214.593 69.6732L230.988 197.448C231.134 198.587 230.784 199.733 230.026 200.594C229.275 201.448 228.193 201.938 227.059 201.938ZM14.3159 67.0698C12.7853 67.0698 11.3266 67.7305 10.3114 68.8843C9.28709 70.0486 8.81352 71.5989 9.01106 73.1413L25.0773 198.357C25.2761 199.905 26.5935 201.07 28.1437 201.07H227.059C227.944 201.07 228.787 200.688 229.375 200.021C229.967 199.347 230.241 198.45 230.127 197.559L213.732 69.7844C213.534 68.2368 212.216 67.0711 210.666 67.0711H14.3159V67.0698Z" fill="#16171A"/>
</g>
</g>
<g id="Group_5">
<g id="Group_6">
<g id="Group_7">
<path id="Vector_9" d="M24.2198 54.6523H198.431C202.276 54.6523 205.775 57.7803 206.245 61.6395L220.941 182.139C221.418 186.039 218.668 189.201 214.801 189.201H39.611C35.7439 189.201 32.2484 186.039 31.8036 182.139L18.0555 61.6395C17.6147 57.7803 20.375 54.6523 24.2212 54.6523H24.2198Z" fill="#16171A" fill-opacity="0.04"/>
<path id="Vector_10" d="M206.797 65.9073L206.468 61.5784C206.001 57.7545 202.38 54.709 198.535 54.709H24.3243C20.4794 54.709 17.6785 57.7545 18.1155 61.5784L18.5236 66.9081L206.798 65.9073H206.797Z" fill="#16171A" fill-opacity="0.4"/>
<g id="Group_8">
<path id="Vector_11" d="M29.0813 61.7579C29.2239 63.0007 28.3317 64.0081 27.0889 64.0081C25.8461 64.0081 24.7236 63.0007 24.5824 61.7579C24.4398 60.5151 25.332 59.5078 26.5748 59.5078C27.8176 59.5078 28.94 60.5151 29.0813 61.7579Z" fill="#16171A" fill-opacity="0.04"/>
<path id="Vector_12" d="M36.2634 61.6075C36.406 62.8504 35.5151 63.8577 34.2723 63.8577C33.0295 63.8577 31.9071 62.8504 31.7645 61.6075C31.6219 60.3647 32.5141 59.3574 33.7556 59.3574C34.9971 59.3574 36.1208 60.3647 36.2634 61.6075Z" fill="#16171A" fill-opacity="0.04"/>
<path id="Vector_13" d="M44.0957 61.9064C44.2383 63.1492 43.3474 64.1565 42.1046 64.1565C40.8618 64.1565 39.7394 63.1492 39.5968 61.9064C39.4542 60.6636 40.3451 59.6562 41.5879 59.6562C42.8307 59.6562 43.9531 60.6636 44.0957 61.9064Z" fill="#16171A" fill-opacity="0.04"/>
</g>
</g>
<g id="Group_9">
<path id="Vector_14" d="M85.0899 133.401H92.9915L93.9897 141.945H86.0854L87.7416 156.155H77.1229L75.4732 141.945H48.0046L46.9541 135.46L69.3769 92.4316H80.3149L85.0899 133.401ZM57.8489 133.401H74.4816L71.3929 106.801L70.7702 108.2L57.8476 133.401H57.8489Z" fill="white"/>
<path id="Vector_15" d="M140.96 129.285C142.05 138.454 141.161 145.372 138.294 150.035C135.425 154.7 130.494 157.032 123.502 157.032C116.509 157.032 111.181 154.757 107.166 150.21C103.152 145.664 100.58 138.937 99.4501 130.029L98.1576 119C97.0849 109.846 97.9888 102.985 100.868 98.4123C103.745 93.8427 108.685 91.5586 115.686 91.5586C122.688 91.5586 128.073 93.7852 132.016 98.2383C135.96 102.694 138.504 109.365 139.649 118.257L140.96 129.285ZM128.944 117.381C128.236 111.406 126.903 107.027 124.946 104.244C122.989 101.463 120.238 100.072 116.692 100.072C113.147 100.072 110.846 101.391 109.529 104.026C108.211 106.663 107.837 110.779 108.409 116.375L110.107 130.817C110.808 136.773 112.159 141.215 114.162 144.136C116.166 147.06 118.944 148.521 122.497 148.521C126.05 148.521 128.264 147.17 129.574 144.465C130.885 141.763 131.244 137.533 130.648 131.781L128.943 117.381H128.944Z" fill="white"/>
<path id="Vector_16" d="M186.72 133.401H194.622L195.656 141.945H187.752L189.468 156.155H178.85L177.14 141.945H149.671L148.593 135.46L170.834 92.4316H181.772L186.721 133.401H186.72ZM159.479 133.401H176.112L172.91 106.801L172.294 108.2L159.479 133.401Z" fill="white"/>
</g>
<g id="Group_10">
<path id="Vector_17" d="M89.7789 154.219H79.1601C78.939 154.219 78.7546 154.054 78.7284 153.834L77.1232 140.009H50.0406C49.8273 140.009 49.6455 139.855 49.6128 139.644L48.5623 133.159C48.5479 133.066 48.5623 132.972 48.6055 132.888L71.0283 89.8598C71.1028 89.7159 71.2507 89.627 71.4129 89.627H82.3509C82.572 89.627 82.7564 89.7918 82.7826 90.0103L87.5131 130.596H95.0288C95.2486 130.596 95.4343 130.761 95.4605 130.98L96.4587 139.524C96.4731 139.647 96.4338 139.77 96.3514 139.862C96.269 139.955 96.1512 140.008 96.027 140.008H88.6094L90.2093 153.732C90.2237 153.855 90.1845 153.978 90.1021 154.071C90.0196 154.164 89.9019 154.216 89.7776 154.216L89.7789 154.219ZM79.5474 153.35H89.2923L87.6923 139.626C87.6779 139.503 87.7172 139.38 87.7996 139.287C87.882 139.194 87.9997 139.142 88.124 139.142H95.5403L94.6429 131.466H87.1272C86.9061 131.466 86.7216 131.301 86.6955 131.083L81.9649 90.4969H71.6758L49.4414 133.164L50.4108 139.143H77.5105C77.7316 139.143 77.916 139.308 77.9422 139.528L79.5474 153.353V153.35ZM76.5188 131.465H59.8862C59.7344 131.465 59.5945 131.387 59.516 131.257C59.4375 131.127 59.4309 130.967 59.5003 130.833L72.4228 105.632L73.0351 104.254C73.1149 104.075 73.3033 103.972 73.4969 104.002C73.6905 104.03 73.8396 104.186 73.8632 104.381L76.9519 130.981C76.9663 131.104 76.927 131.227 76.8446 131.32C76.7622 131.413 76.6444 131.465 76.5202 131.465H76.5188ZM60.5966 130.596H76.0309L73.1816 106.05L60.5966 130.596Z" fill="#16171A"/>
<path id="Vector_18" d="M125.539 155.096C118.565 155.096 112.959 152.752 108.877 148.127C104.825 143.538 102.194 136.67 101.056 127.714L99.7631 116.68C98.6838 107.469 99.6179 100.448 102.537 95.8117C105.485 91.1283 110.595 88.7539 117.722 88.7539C124.849 88.7539 130.366 91.0511 134.376 95.5802C138.361 100.082 140.964 106.895 142.114 115.83L143.426 126.862C144.524 136.09 143.605 143.165 140.698 147.89C137.759 152.671 132.657 155.095 125.538 155.095L125.539 155.096ZM117.724 89.6226C110.913 89.6226 106.052 91.8609 103.272 96.2735C100.46 100.738 99.5695 107.57 100.625 116.578L101.918 127.608C103.032 136.383 105.592 143.096 109.528 147.552C113.438 151.981 118.824 154.227 125.538 154.227C132.251 154.227 137.187 151.943 139.959 147.437C142.762 142.881 143.637 135.994 142.564 126.966L141.253 115.937C140.125 107.181 137.594 100.525 133.727 96.1558C129.889 91.8204 124.504 89.6226 117.724 89.6226ZM124.534 146.586C120.846 146.586 117.921 145.048 115.841 142.013C113.807 139.047 112.417 134.501 111.712 128.499L110.014 114.057C109.436 108.398 109.828 104.163 111.177 101.463C112.568 98.6806 115.11 97.2704 118.73 97.2704C122.349 97.2704 125.303 98.7356 127.338 101.627C129.327 104.456 130.698 108.944 131.411 114.963L133.117 129.362C133.718 135.177 133.342 139.523 132.003 142.287C130.619 145.141 128.107 146.588 124.535 146.588L124.534 146.586ZM118.728 98.1364C115.419 98.1364 113.202 99.3518 111.953 101.85C110.679 104.4 110.316 108.475 110.876 113.962L112.574 128.398C113.264 134.259 114.603 138.674 116.558 141.522C118.493 144.345 121.103 145.718 124.535 145.718C127.792 145.718 129.979 144.471 131.222 141.907C132.491 139.29 132.839 135.101 132.255 129.456L130.551 115.063C129.855 109.188 128.535 104.834 126.629 102.125C124.74 99.442 122.156 98.1377 118.73 98.1377L118.728 98.1364Z" fill="#16171A"/>
<path id="Vector_19" d="M191.506 154.219H180.888C180.668 154.219 180.484 154.054 180.458 153.837L178.794 140.009H151.71C151.498 140.009 151.316 139.856 151.282 139.647L150.203 133.162C150.187 133.069 150.203 132.975 150.246 132.891L172.487 89.8624C172.561 89.7185 172.711 89.627 172.873 89.627H183.811C184.031 89.627 184.215 89.7905 184.241 90.009L185.583 101.12C185.612 101.358 185.442 101.574 185.204 101.602C184.965 101.63 184.75 101.461 184.721 101.223L183.425 90.4943H173.136L151.082 133.16L152.076 139.14H179.177C179.397 139.14 179.581 139.305 179.607 139.522L181.272 153.35H191.015L189.644 141.996C189.615 141.758 189.785 141.542 190.024 141.513C190.259 141.486 190.477 141.655 190.506 141.893L191.936 153.733C191.951 153.856 191.913 153.981 191.83 154.074C191.748 154.166 191.63 154.22 191.506 154.22V154.219ZM178.149 131.465H161.516C161.366 131.465 161.224 131.387 161.146 131.258C161.067 131.13 161.061 130.969 161.129 130.834L173.944 105.633L174.55 104.255C174.628 104.076 174.818 103.97 175.012 104.002C175.205 104.03 175.356 104.185 175.379 104.378L177.368 120.902C177.397 121.141 177.227 121.356 176.988 121.385C176.749 121.417 176.534 121.244 176.506 121.006L174.706 106.049L162.224 130.596H177.66L177.308 127.67C177.279 127.432 177.449 127.216 177.687 127.187C177.929 127.156 178.141 127.328 178.17 127.567L178.581 130.978C178.595 131.101 178.557 131.226 178.475 131.318C178.392 131.411 178.274 131.465 178.15 131.465H178.149Z" fill="#16171A"/>
</g>
</g>
<path id="Vector_20" d="M184.24 189.637H39.6753C35.6015 189.637 31.9058 186.296 31.4374 182.19L17.6894 61.6906C17.4604 59.6864 18.0308 57.8026 19.2946 56.3871C20.5413 54.9899 22.3139 54.2207 24.2867 54.2207H198.499C202.551 54.2207 206.249 57.5266 206.745 61.5886L211.524 100.774C211.553 101.012 211.384 101.228 211.146 101.258C210.908 101.285 210.692 101.118 210.662 100.88L205.883 61.6945C205.439 58.0525 202.127 55.0894 198.499 55.0894H24.2841C22.5625 55.0894 21.0201 55.7552 19.9408 56.9653C18.8445 58.1938 18.3513 59.8369 18.5515 61.5925L32.2995 182.092C32.7195 185.774 36.028 188.769 39.6753 188.769H184.241C184.48 188.769 184.675 188.964 184.675 189.204C184.675 189.443 184.48 189.638 184.241 189.638L184.24 189.637Z" fill="#16171A"/>
</g>
<path id="Vector_21" d="M157.818 235.123H96.6887C96.4493 235.123 96.2544 234.928 96.2544 234.689C96.2544 234.449 96.4493 234.254 96.6887 234.254H157.818C158.592 234.254 159.199 233.62 159.199 232.811V231.103C159.199 230.288 158.579 229.625 157.818 229.625H140.099C139.86 229.625 139.665 229.43 139.665 229.19C139.665 228.951 139.86 228.756 140.099 228.756H157.818C159.058 228.756 160.068 229.809 160.068 231.103V232.811C160.068 234.086 159.058 235.123 157.818 235.123Z" fill="#16171A"/>
</g>
<g id="Group_11">
<path id="Vector_22" d="M76.8611 230.494H24.1819L29.1675 220.682L33.5121 212.137L38.3669 202.589L42.7101 194.047L48.359 182.944C48.7724 182.129 49.6084 181.619 50.5215 181.619C51.4346 181.619 52.2706 182.129 52.684 182.943L58.3329 194.046L62.6761 202.586L67.5309 212.132L71.8755 220.682L76.8611 230.494Z" fill="#16171A" fill-opacity="0.4"/>
<path id="Vector_23" d="M62.6761 202.712H38.3682L42.7101 194.029H58.3328L62.6761 202.712Z" fill="#16171A"/>
<path id="Vector_24" d="M71.8755 220.655H29.1675L33.5134 212.262H67.5309L71.8755 220.655Z" fill="#16171A"/>
<path id="Vector_25" d="M76.6008 231.074H23.9216C23.7711 231.074 23.6312 230.995 23.5514 230.867C23.4729 230.739 23.465 230.578 23.533 230.444L28.5187 220.56L32.8645 211.978L42.0626 193.86L47.7115 182.752C48.2021 181.787 49.178 181.188 50.2612 181.188C51.3444 181.188 52.3216 181.785 52.8096 182.748L67.6565 211.936L76.988 230.444C77.0561 230.579 77.0495 230.739 76.9697 230.867C76.8912 230.995 76.7512 231.074 76.5995 231.074H76.6008ZM24.6267 230.205H75.8957L66.8821 212.327L52.0364 183.141C51.6963 182.471 51.016 182.055 50.2612 182.055C49.5064 182.055 48.8274 182.472 48.4859 183.145L38.4938 202.802L33.639 212.369L29.2931 220.949L24.6254 230.204L24.6267 230.205Z" fill="#16171A"/>
<g id="Group_12">
<path id="Vector_26" d="M20.8029 228.912H79.9813C80.9546 228.912 81.7461 229.702 81.7461 230.677V236.255C81.7461 237.228 80.9559 238.02 79.9813 238.02H20.8029C19.8296 238.02 19.0381 237.23 19.0381 236.255V230.677C19.0381 229.704 19.8282 228.912 20.8029 228.912Z" fill="#16171A"/>
<path id="Vector_27" d="M79.9811 238.454H20.8026C19.5899 238.454 18.6035 237.467 18.6035 236.255V230.678C18.6035 229.465 19.5899 228.479 20.8026 228.479H79.9811C81.1938 228.479 82.1802 229.465 82.1802 230.678V236.255C82.1802 237.467 81.1938 238.454 79.9811 238.454ZM20.8026 229.347C20.0687 229.347 19.4722 229.944 19.4722 230.678V236.255C19.4722 236.988 20.0687 237.585 20.8026 237.585H79.9811C80.715 237.585 81.3115 236.988 81.3115 236.255V230.678C81.3115 229.944 80.715 229.347 79.9811 229.347H20.8026Z" fill="#16171A"/>
</g>
</g>
<g id="Group_13">
<path id="Vector_28" d="M223.562 124.258C230.41 126.184 239.226 133.597 239.226 147.048C239.226 156.738 224.954 164.946 224.954 164.946L222.6 159.168C222.6 159.168 230.468 153.342 230.091 146.541C229.789 141.087 220.995 139.393 220.995 139.393L223.563 124.258H223.562Z" fill="#16171A"/>
<g id="Group_14">
<path id="Vector_29" d="M220.673 229.018H215.75V234.796H220.673V229.018Z" fill="#16171A"/>
<path id="Vector_30" d="M206.242 228.107L201.45 229.238L202.778 234.862L207.569 233.731L206.242 228.107Z" fill="#16171A"/>
<path id="Vector_31" d="M224.739 157.322C224.739 157.322 226.209 168.943 225.08 173.455C223.953 177.967 221.314 219.663 221.314 230.943H214.68L211.684 177.653L202.426 196.989C201.753 198.557 201.583 200.296 201.937 201.965L207.404 230.943L201.197 231.371L190.822 199.553C190.358 197.975 190.324 196.302 190.723 194.707L199.137 161.048L224.739 157.322Z" fill="#16171A"/>
<path id="Vector_32" d="M212.005 176.908C211.909 176.908 211.814 176.877 211.734 176.813C211.547 176.664 211.517 176.39 211.666 176.203L215.089 171.923C215.239 171.735 215.512 171.705 215.699 171.855C215.886 172.005 215.916 172.277 215.767 172.464L212.343 176.745C212.258 176.852 212.132 176.907 212.005 176.907V176.908Z" fill="white"/>
<g id="Group_15">
<g id="Group_16">
<path id="Vector_33" d="M220.993 233.51H215.215L214.358 237.871C214.193 238.713 214.8 239.503 215.614 239.503H220.594C221.408 239.503 222.015 238.714 221.85 237.871L220.993 233.51Z" fill="white"/>
<path id="Vector_34" d="M220.594 239.936H215.614C215.113 239.936 214.637 239.709 214.311 239.312C213.963 238.89 213.824 238.334 213.933 237.788L214.79 233.427C214.829 233.223 215.008 233.076 215.216 233.076H220.995C221.203 233.076 221.381 233.223 221.421 233.427L222.278 237.788C222.385 238.334 222.247 238.89 221.899 239.314C221.573 239.71 221.098 239.938 220.596 239.938L220.594 239.936ZM215.572 233.945L214.783 237.956C214.726 238.246 214.798 238.539 214.981 238.762C215.144 238.959 215.368 239.069 215.613 239.069H220.593C220.838 239.069 221.063 238.961 221.225 238.762C221.408 238.539 221.48 238.246 221.422 237.956L220.634 233.945H215.569H215.572Z" fill="#16171A"/>
</g>
<path id="Vector_35" d="M220.994 238.546H215.001C214.761 238.546 214.566 238.351 214.566 238.112C214.566 237.873 214.761 237.678 215.001 237.678H220.994C221.233 237.678 221.428 237.873 221.428 238.112C221.428 238.351 221.233 238.546 220.994 238.546Z" fill="#16171A"/>
</g>
<g id="Group_17">
<path id="Vector_36" d="M207.724 232.228L209.307 237.479C209.582 238.392 209.026 239.359 208.207 239.386L197.337 239.754C196.664 239.776 196.396 238.735 196.964 238.307C198.733 236.978 201.086 235.132 201.732 234.256C203.23 232.227 204.728 234.002 204.728 234.002C204.728 234.002 205.798 232.227 207.724 232.227V232.228Z" fill="white"/>
<path id="Vector_37" d="M197.316 240.189C196.862 240.189 196.465 239.892 196.299 239.422C196.106 238.876 196.268 238.288 196.702 237.963C199.244 236.051 200.907 234.645 201.383 234C201.929 233.261 202.553 232.874 203.234 232.851C203.841 232.823 204.34 233.11 204.664 233.358C205.145 232.773 206.184 231.793 207.724 231.793C207.915 231.793 208.084 231.919 208.14 232.102L209.723 237.354C209.909 237.969 209.803 238.636 209.442 239.139C209.142 239.556 208.697 239.804 208.221 239.82L197.351 240.188C197.339 240.188 197.328 240.188 197.316 240.188V240.189ZM203.294 233.719C203.283 233.719 203.269 233.719 203.258 233.719C202.856 233.733 202.46 234.001 202.082 234.514C201.543 235.245 199.907 236.639 197.224 238.655C197.075 238.767 197.065 238.98 197.118 239.132C197.138 239.19 197.197 239.32 197.317 239.32H197.322L208.192 238.953C208.474 238.944 208.654 238.749 208.737 238.632C208.938 238.351 208.998 237.957 208.891 237.604L207.407 232.68C205.951 232.858 205.109 234.213 205.1 234.228C205.026 234.347 204.901 234.424 204.762 234.436C204.622 234.446 204.487 234.39 204.397 234.283C204.393 234.279 203.904 233.717 203.294 233.717V233.719Z" fill="#16171A"/>
</g>
<g id="Group_18">
<path id="Vector_38" d="M198.521 238.548C198.289 238.548 198.097 238.366 198.088 238.133C198.077 237.894 198.263 237.691 198.503 237.681L208.347 237.253C208.593 237.238 208.789 237.428 208.799 237.667C208.81 237.907 208.624 238.11 208.385 238.12L198.54 238.548C198.54 238.548 198.527 238.548 198.521 238.548Z" fill="#16171A"/>
</g>
</g>
<g id="Group_19">
<g id="Group_20">
<path id="Vector_39" d="M213.503 121.262L218.853 124.9L204.12 124.195L208.367 121.477L208.939 118.843C208.185 118.732 207.149 118.656 206.819 118.245C206.237 117.519 206.5 115.009 206.5 115.009L205.862 114.507C205.794 114.473 205.744 114.411 205.723 114.338C205.702 114.265 205.714 114.186 205.754 114.122C206.296 113.259 206.807 112.979 207.048 112.098C207.285 111.231 207.18 111.362 208.114 109.492L213.717 109.484L213.749 113.684C213.749 113.684 214.608 113.128 215.154 113.879C215.55 114.424 214.674 116.248 213.962 116.249L213.504 121.262H213.503Z" fill="white"/>
<path id="Vector_40" d="M218.853 125.334C218.847 125.334 218.839 125.334 218.833 125.334L204.099 124.629C203.911 124.62 203.749 124.49 203.7 124.307C203.652 124.124 203.727 123.932 203.886 123.83L207.98 121.208L208.414 119.209C207.634 119.103 206.851 118.979 206.479 118.517C205.898 117.795 205.983 115.948 206.045 115.203L205.618 114.868C205.465 114.776 205.353 114.628 205.304 114.454C205.251 114.264 205.281 114.059 205.387 113.89C205.601 113.548 205.811 113.293 205.995 113.067C206.289 112.709 206.503 112.448 206.628 111.983C206.66 111.866 206.684 111.769 206.708 111.682C206.868 111.068 206.923 110.902 207.726 109.295C207.799 109.149 207.949 109.056 208.113 109.055L213.716 109.047C213.954 109.047 214.149 109.239 214.15 109.477L214.178 113.068C214.627 113.002 215.137 113.114 215.504 113.62C215.936 114.217 215.487 115.21 215.34 115.502C215.196 115.783 214.853 116.362 214.366 116.587L213.959 121.045L219.098 124.539C219.259 124.649 219.327 124.85 219.266 125.036C219.207 125.214 219.039 125.333 218.853 125.333V125.334ZM205.502 123.827L217.336 124.394L213.26 121.621C213.129 121.532 213.057 121.381 213.071 121.222L213.529 116.209C213.55 115.986 213.737 115.816 213.961 115.814C214.021 115.81 214.266 115.656 214.522 115.193C214.805 114.68 214.853 114.229 214.799 114.131C214.506 113.728 214.037 114.014 213.984 114.048C213.851 114.135 213.682 114.141 213.542 114.065C213.402 113.991 213.316 113.844 213.314 113.686L213.286 109.918L208.382 109.925C207.711 111.273 207.679 111.399 207.548 111.901C207.524 111.992 207.498 112.092 207.465 112.211C207.29 112.856 206.987 113.227 206.666 113.618C206.516 113.801 206.361 113.989 206.204 114.223L206.767 114.666C206.885 114.759 206.946 114.904 206.93 115.053C206.83 116.022 206.832 117.57 207.157 117.973C207.329 118.187 208.155 118.299 208.648 118.364C208.77 118.381 208.889 118.397 209.003 118.414C209.122 118.431 209.228 118.497 209.296 118.597C209.364 118.695 209.388 118.818 209.362 118.936L208.791 121.568C208.766 121.68 208.698 121.778 208.601 121.841L205.502 123.826V123.827Z" fill="#16171A"/>
</g>
<path id="Vector_41" d="M214.235 118.126C213.106 118.501 211.993 117.618 211.793 117.46C211.008 116.837 210.367 115.729 210.682 115.24C210.855 114.972 211.165 115.118 211.571 114.796C212.167 114.323 212.337 113.296 212.014 113.02C211.75 112.794 211.336 113.227 210.903 113.02C210.376 112.767 210.646 111.958 210.237 111.243C209.57 110.078 208.015 110.78 206.819 109.54C206.038 108.73 205.699 107.38 206.145 106.617C206.276 106.394 206.475 106.198 206.759 106.041C208.64 105.004 208.921 106.423 210.753 106.438C214.523 106.471 216.372 107.224 217.053 108.787C217.516 109.846 216.951 111.535 216.677 112.354C216.585 112.627 216.394 113.143 216.232 113.908C216.055 114.747 216.11 114.963 216.009 115.462C215.939 115.813 215.565 117.684 214.233 118.127L214.235 118.126Z" fill="#16171A"/>
</g>
<g id="Group_21">
<g id="Group_22">
<path id="Vector_42" d="M205.793 111.548C205.793 111.548 207.457 112.163 207.819 111.331C208.182 110.499 207.602 109.812 208.506 109.161C209.41 108.509 211.581 107.823 210.785 106.845C209.99 105.868 207.566 105.47 206.879 106.628C206.192 107.786 205.684 109.776 205.215 109.811C204.745 109.848 204.919 111.344 205.793 111.547V111.548Z" fill="white"/>
<path id="Vector_43" d="M206.938 112.203C206.375 112.203 205.823 112.022 205.666 111.965C204.815 111.748 204.484 110.772 204.53 110.173C204.567 109.672 204.837 109.446 205.101 109.391C205.257 109.223 205.534 108.55 205.72 108.097C205.95 107.537 206.211 106.904 206.505 106.407C206.819 105.877 207.423 105.554 208.204 105.496C209.316 105.413 210.546 105.866 211.122 106.572C211.406 106.92 211.415 107.244 211.373 107.456C211.235 108.144 210.394 108.597 209.581 109.035C209.265 109.205 208.968 109.365 208.76 109.514C208.389 109.782 208.39 109.995 208.391 110.42C208.393 110.723 208.394 111.098 208.217 111.505C207.981 112.049 207.455 112.202 206.938 112.202V112.203ZM205.942 111.143C206.466 111.334 207.294 111.45 207.419 111.16C207.524 110.92 207.523 110.69 207.521 110.424C207.519 109.94 207.516 109.338 208.251 108.81C208.505 108.628 208.827 108.454 209.167 108.271C209.651 108.011 210.462 107.574 210.52 107.287C210.528 107.247 210.504 107.19 210.447 107.121C210.057 106.642 209.081 106.303 208.266 106.362C207.982 106.383 207.472 106.475 207.249 106.852C206.986 107.294 206.739 107.897 206.521 108.428C206.109 109.43 205.846 110.072 205.394 110.218C205.382 110.327 205.397 110.543 205.505 110.767C205.562 110.881 205.685 111.081 205.889 111.128C205.907 111.132 205.924 111.137 205.941 111.144L205.942 111.143Z" fill="#16171A"/>
</g>
<g id="Group_23">
<path id="Vector_44" d="M198.522 123.402C198.522 123.402 211.364 119.764 223.562 124.258C224.5 129.666 225.146 134.336 225.595 138.035C226.386 144.546 225.893 142.467 226.879 151.972C227.492 157.88 227.655 158.422 227.094 159.463C224.264 164.712 212.858 164.426 208.474 163.316C208.163 163.237 206.875 162.897 204.77 162.366C202.359 161.758 200.38 161.278 199.057 160.961C198.342 160.637 197.376 160.062 196.704 159.035C195.196 156.733 196.204 153.75 196.704 151.759C197.989 146.645 196.301 146.534 196.704 137.206C196.845 133.945 197.256 129.207 198.524 123.402H198.522Z" fill="#16171A"/>
<path id="Vector_45" d="M222.01 163.465C221.798 163.465 221.613 163.31 221.581 163.094C221.546 162.857 221.711 162.636 221.947 162.601C222.18 162.567 227.637 161.698 226.915 156.527C226.882 156.29 227.047 156.07 227.285 156.037C227.52 156.005 227.742 156.169 227.774 156.408C228.617 162.44 222.137 163.451 222.072 163.461C222.051 163.464 222.03 163.465 222.009 163.465H222.01Z" fill="white"/>
<path id="Vector_46" d="M207.138 158.472C207.028 158.472 206.918 158.43 206.833 158.348C201.714 153.302 200.659 145.667 200.617 145.346C200.585 145.108 200.753 144.89 200.991 144.859C201.229 144.829 201.446 144.995 201.478 145.233C201.488 145.309 202.541 152.899 207.443 157.731C207.613 157.899 207.616 158.174 207.447 158.344C207.362 158.43 207.249 158.474 207.138 158.474V158.472Z" fill="white"/>
<path id="Vector_47" d="M193.965 116.513C193.972 116.286 194.137 116.093 194.361 116.049L207.047 112.097L205.947 109.483C205.947 109.483 188.77 104.028 180.711 110.986C172.652 117.943 188.852 135.132 197.998 139.113L206.372 122.302L194.327 117.005C194.107 116.945 193.957 116.742 193.965 116.515V116.513Z" fill="#16171A"/>
</g>
</g>
</g>
<g id="Group_24">
<g id="Group_25">
<path id="Vector_48" d="M228.102 86.1266C234.924 79.3052 234.924 68.2455 228.102 61.4241C221.281 54.6027 210.221 54.6027 203.4 61.4241C196.578 68.2455 196.578 79.3052 203.4 86.1266C210.221 92.948 221.281 92.948 228.102 86.1266Z" fill="white"/>
<path id="Vector_49" d="M215.75 91.6763C205.88 91.6763 197.849 83.6465 197.849 73.7747C197.849 63.9029 205.879 55.873 215.75 55.873C225.622 55.873 233.652 63.9029 233.652 73.7747C233.652 83.6465 225.622 91.6763 215.75 91.6763ZM215.75 56.7417C206.359 56.7417 198.718 64.383 198.718 73.7747C198.718 83.1663 206.359 90.8076 215.75 90.8076C225.142 90.8076 232.783 83.1663 232.783 73.7747C232.783 64.383 225.142 56.7417 215.75 56.7417Z" fill="#16171A"/>
</g>
<g id="Group_26">
<path id="Vector_50" d="M223.533 81.5569C227.831 77.2593 227.831 70.2915 223.533 65.9939C219.235 61.6963 212.268 61.6963 207.97 65.9939C203.672 70.2915 203.672 77.2593 207.97 81.5569C212.268 85.8545 219.235 85.8545 223.533 81.5569Z" fill="#16171A" fill-opacity="0.4"/>
<g id="Group_27">
<path id="Vector_51" d="M211.018 78.7583C210.98 78.7583 210.941 78.7531 210.903 78.7426C210.671 78.6798 210.535 78.4404 210.599 78.2088C211.244 75.8554 213.4 74.2109 215.844 74.2109C218.288 74.2109 220.234 75.6866 220.988 77.8831C221.065 78.1094 220.945 78.3567 220.718 78.4352C220.489 78.5123 220.245 78.392 220.166 78.1657C219.533 76.3198 217.796 75.0796 215.844 75.0796C213.79 75.0796 211.978 76.4611 211.437 78.4391C211.384 78.6314 211.209 78.7583 211.018 78.7583Z" fill="white"/>
<path id="Vector_52" d="M212.147 71.9128C212.036 71.9128 211.924 71.8709 211.839 71.7859L209.367 69.3134C209.197 69.1433 209.197 68.8686 209.367 68.6998C209.537 68.5297 209.812 68.5297 209.98 68.6998L212.453 71.1723C212.623 71.3424 212.623 71.6171 212.453 71.7859C212.368 71.8709 212.257 71.9128 212.145 71.9128H212.147Z" fill="white"/>
<g id="Group_28">
<path id="Vector_53" d="M212.147 71.9128C212.036 71.9128 211.924 71.8709 211.839 71.7859L209.367 69.3134C209.197 69.1433 209.197 68.8686 209.367 68.6998C209.537 68.5297 209.812 68.5297 209.98 68.6998L212.453 71.1723C212.623 71.3424 212.623 71.6171 212.453 71.7859C212.368 71.8709 212.257 71.9128 212.145 71.9128H212.147Z" fill="white"/>
<path id="Vector_54" d="M209.674 71.9128C209.563 71.9128 209.452 71.8709 209.367 71.7859C209.197 71.6158 209.197 71.3411 209.367 71.1723L211.839 68.6998C212.009 68.5297 212.284 68.5297 212.453 68.6998C212.623 68.8699 212.623 69.1446 212.453 69.3134L209.98 71.7859C209.895 71.8709 209.784 71.9128 209.673 71.9128H209.674Z" fill="white"/>
</g>
<g id="Group_29">
<path id="Vector_55" d="M221.987 71.9128C221.876 71.9128 221.765 71.8709 221.68 71.7859L219.207 69.3134C219.037 69.1433 219.037 68.8686 219.207 68.6998C219.377 68.5297 219.652 68.5297 219.821 68.6998L222.293 71.1723C222.464 71.3424 222.464 71.6171 222.293 71.7859C222.208 71.8709 222.097 71.9128 221.986 71.9128H221.987Z" fill="white"/>
<path id="Vector_56" d="M219.515 71.9128C219.404 71.9128 219.292 71.8709 219.207 71.7859C219.037 71.6158 219.037 71.3411 219.207 71.1723L221.68 68.6998C221.85 68.5297 222.125 68.5297 222.293 68.6998C222.464 68.8699 222.464 69.1446 222.293 69.3134L219.821 71.7859C219.736 71.8709 219.625 71.9128 219.514 71.9128H219.515Z" fill="white"/>
</g>
</g>
</g>
</g>
<g id="Group_30">
<g id="Group_31">
<g id="Group_32">
<path id="Vector_57" d="M156.763 19.2166C156.689 19.2166 156.614 19.2022 156.541 19.1721C139.374 12.0175 119.573 9.83275 99.2762 12.856C98.961 12.9018 98.6653 12.6847 98.6182 12.3694C98.5711 12.0528 98.7896 11.7584 99.1049 11.7114C119.61 8.65798 139.624 10.8676 156.986 18.1046C157.281 18.2276 157.42 18.5664 157.297 18.8621C157.204 19.0845 156.989 19.2179 156.762 19.2179L156.763 19.2166Z" fill="#16171A"/>
<path id="Vector_58" d="M165.031 16.7476C164.941 16.7476 164.849 16.7267 164.764 16.6822C163.29 15.9143 161.76 15.1712 160.219 14.4752C138.626 4.71986 112.496 2.87396 86.6427 9.2803C86.3301 9.35617 86.0187 9.16779 85.9415 8.85774C85.8643 8.5477 86.054 8.23372 86.3641 8.15654C112.468 1.68872 138.867 3.55816 160.696 13.4208C162.258 14.1259 163.807 14.8782 165.299 15.6565C165.583 15.8044 165.693 16.1537 165.545 16.4375C165.442 16.6351 165.24 16.7489 165.031 16.7489V16.7476Z" fill="#16171A"/>
</g>
<g id="Group_33">
<path id="Vector_59" d="M183.264 37.2126C183.033 37.2126 182.841 37.0321 182.831 36.7992C182.819 36.5598 183.003 36.3558 183.243 36.3453L185.328 36.2446C185.567 36.2341 185.771 36.4173 185.782 36.6567C185.794 36.8961 185.609 37.1001 185.37 37.1106L183.285 37.2113C183.278 37.2113 183.27 37.2113 183.264 37.2113V37.2126Z" fill="#16171A"/>
<path id="Vector_60" d="M190.562 36.8611C190.332 36.8611 190.14 36.6805 190.129 36.4477C190.117 36.2083 190.302 36.0042 190.541 35.9937L192.627 35.893C192.861 35.8825 193.07 36.0657 193.081 36.3051C193.092 36.5445 192.908 36.7486 192.668 36.759L190.583 36.8598C190.577 36.8598 190.569 36.8598 190.562 36.8598V36.8611Z" fill="#16171A"/>
<path id="Vector_61" d="M188.209 41.6774C187.98 41.6774 187.788 41.4981 187.776 41.2666L187.663 39.1813C187.65 38.9419 187.833 38.7378 188.073 38.7247C188.316 38.7195 188.518 38.8961 188.529 39.1342L188.642 41.2195C188.655 41.4589 188.472 41.663 188.232 41.6761C188.224 41.6761 188.217 41.6761 188.209 41.6761V41.6774Z" fill="#16171A"/>
<path id="Vector_62" d="M187.815 34.3806C187.586 34.3806 187.395 34.2014 187.382 33.9698L187.269 31.8846C187.256 31.6451 187.44 31.4411 187.679 31.428C187.916 31.4201 188.122 31.5981 188.135 31.8375L188.248 33.9228C188.261 34.1622 188.078 34.3662 187.839 34.3793C187.831 34.3793 187.823 34.3793 187.815 34.3793V34.3806Z" fill="#16171A"/>
</g>
<g id="Group_34">
<path id="Vector_63" d="M168.935 212.75C168.856 212.75 168.778 212.73 168.707 212.685L167.222 211.767C167.018 211.641 166.955 211.373 167.081 211.169C167.206 210.965 167.475 210.902 167.679 211.028L169.163 211.946C169.368 212.072 169.43 212.34 169.305 212.544C169.222 212.677 169.081 212.749 168.936 212.749L168.935 212.75Z" fill="#16171A"/>
<path id="Vector_64" d="M174.13 215.961C174.051 215.961 173.973 215.94 173.902 215.896L172.417 214.978C172.213 214.852 172.15 214.584 172.276 214.38C172.401 214.176 172.67 214.113 172.874 214.238L174.359 215.157C174.563 215.282 174.625 215.551 174.5 215.755C174.417 215.888 174.276 215.96 174.131 215.96L174.13 215.961Z" fill="#16171A"/>
<path id="Vector_65" d="M168.742 217.249C168.665 217.249 168.587 217.229 168.516 217.185C168.312 217.061 168.246 216.793 168.372 216.589L169.283 215.099C169.408 214.893 169.675 214.829 169.879 214.955C170.083 215.079 170.149 215.347 170.023 215.551L169.112 217.041C169.03 217.175 168.887 217.249 168.742 217.249Z" fill="#16171A"/>
<path id="Vector_66" d="M171.928 212.034C171.851 212.034 171.772 212.013 171.701 211.97C171.497 211.846 171.432 211.578 171.558 211.374L172.468 209.884C172.594 209.68 172.861 209.614 173.065 209.74C173.269 209.864 173.334 210.132 173.209 210.336L172.298 211.826C172.216 211.96 172.073 212.034 171.928 212.034Z" fill="#16171A"/>
</g>
</g>
<g id="Group_35">
<g id="Group_36">
<path id="Vector_67" d="M56.5884 30.3324C56.5452 30.3324 56.502 30.3258 56.4589 30.3127L54.8406 29.8065C54.6117 29.7345 54.4848 29.4912 54.5554 29.2622C54.6274 29.0333 54.8694 28.9051 55.0996 28.977L56.7179 29.4833C56.9468 29.5553 57.0737 29.7986 57.0031 30.0275C56.9442 30.2133 56.7742 30.3324 56.5884 30.3324Z" fill="#16171A"/>
<path id="Vector_68" d="M50.9224 28.5589C50.8792 28.5589 50.836 28.5524 50.7929 28.5393L49.1746 28.033C48.9457 27.9611 48.8188 27.7177 48.8894 27.4888C48.9614 27.2599 49.2034 27.1317 49.4336 27.2036L51.0519 27.7099C51.2808 27.7818 51.4077 28.0252 51.3371 28.2541C51.2782 28.4399 51.1081 28.5589 50.9224 28.5589Z" fill="#16171A"/>
<path id="Vector_69" d="M53.5675 27.1643C53.5257 27.1643 53.4825 27.1578 53.4406 27.146C53.2117 27.0754 53.0822 26.8334 53.1528 26.6031L53.65 24.9809C53.7206 24.752 53.9626 24.6225 54.1929 24.6931C54.4218 24.7638 54.5513 25.0058 54.4807 25.236L53.9836 26.8582C53.926 27.0453 53.7546 27.1656 53.5689 27.1656L53.5675 27.1643Z" fill="#16171A"/>
<path id="Vector_70" d="M51.8288 32.8421C51.7869 32.8421 51.7437 32.8355 51.7019 32.8238C51.4729 32.7531 51.3434 32.5111 51.4141 32.2809L51.9112 30.6587C51.9818 30.4297 52.2239 30.3002 52.4541 30.3709C52.683 30.4415 52.8126 30.6835 52.7419 30.9138L52.2448 32.536C52.1872 32.723 52.0158 32.8434 51.8301 32.8434L51.8288 32.8421Z" fill="#16171A"/>
</g>
<path id="Vector_71" d="M80.347 12.8287C79.8721 12.8287 79.4117 12.6795 79.0205 12.3956C78.5312 12.0398 78.2107 11.5152 78.1165 10.9187C77.9229 9.68632 78.7667 8.52462 79.999 8.33101C81.2301 8.13477 82.3931 8.98119 82.5867 10.2135C82.7816 11.4459 81.9365 12.6076 80.7042 12.8012C80.5851 12.8195 80.4648 12.83 80.347 12.83V12.8287ZM80.3523 9.16957C80.2803 9.16957 80.207 9.17481 80.1338 9.18658C79.375 9.30693 78.8544 10.0225 78.9734 10.7826C79.031 11.1502 79.2298 11.4733 79.5307 11.6931C79.8316 11.9116 80.2005 12.0006 80.5694 11.943C81.3295 11.8226 81.8502 11.107 81.7298 10.347C81.6212 9.66015 81.026 9.16957 80.3523 9.16957Z" fill="#16171A"/>
</g>
</g>
</g>
</g>
</g>
<defs>
<clipPath id="clip0_143_14611">
<rect width="239.562" height="240" fill="white" transform="translate(0.219238 0.1875)"/>
</clipPath>
</defs>
</svg>
