<svg width="22" height="22" viewBox="0 0 22 22" fill="none" xmlns="http://www.w3.org/2000/svg">
<g id="Component 5">
<path id="Vector" d="M4.44727 4.44727C4.57617 4.31836 4.73014 4.25391 4.90918 4.25391C5.08822 4.25391 5.24219 4.31836 5.37109 4.44727L16.4355 15.5117V10.8926C16.4355 10.7064 16.5 10.5488 16.6289 10.4199C16.7578 10.291 16.9154 10.2266 17.1016 10.2266C17.2734 10.2266 17.4238 10.291 17.5527 10.4199C17.6816 10.5488 17.7461 10.7064 17.7461 10.8926V17.0371C17.7461 17.123 17.7282 17.209 17.6924 17.2949C17.6566 17.3809 17.6029 17.4525 17.5312 17.5098C17.5312 17.5241 17.5312 17.5312 17.5312 17.5312C17.5169 17.5312 17.5098 17.5312 17.5098 17.5312C17.4525 17.6029 17.3844 17.6566 17.3057 17.6924C17.2269 17.7282 17.1374 17.7461 17.0371 17.7461H10.9141C10.7279 17.7461 10.5703 17.6816 10.4414 17.5527C10.3125 17.4238 10.248 17.2663 10.248 17.0801C10.248 16.8939 10.3125 16.7363 10.4414 16.6074C10.5703 16.4785 10.7279 16.4141 10.9141 16.4141H15.4688L4.44727 5.39258C4.31836 5.26367 4.25391 5.10612 4.25391 4.91992C4.25391 4.73372 4.31836 4.57617 4.44727 4.44727Z" fill="white"/>
</g>
</svg>
