<svg width="32" height="32" viewBox="0 0 32 32" fill="none" xmlns="http://www.w3.org/2000/svg">
<g id="call-calling">
<g id="Vector">
<path d="M14.7334 19.9334L12.2667 22.4C11.7467 22.92 10.9201 22.92 10.3867 22.4134C10.3134 22.34 10.2401 22.27 10.1667 22.2C10.0934 22.13 10.0201 22.06 9.94675 21.9867C8.57342 20.6 7.33342 19.1467 6.22675 17.6267C5.13341 16.1067 4.25341 14.5867 3.61341 13.08C2.98675 11.56 2.66675 10.1067 2.66675 8.72002C2.66675 7.81335 2.82675 6.94669 3.14675 6.14669C3.46675 5.33335 3.97341 4.58669 4.68008 3.92002C5.53341 3.08002 6.46675 2.66669 7.45341 2.66669C7.82675 2.66669 8.20008 2.74669 8.53341 2.90669C8.88008 3.06669 9.18675 3.30669 9.42675 3.65335L12.5201 8.01335C12.7601 8.34669 12.9334 8.65335 13.0534 8.94669C13.1734 9.22669 13.2401 9.50669 13.2401 9.76002C13.2401 10.08 13.1467 10.4 12.9601 10.7067C12.7867 11.0134 12.5334 11.3334 12.2134 11.6534L11.2001 12.7067C11.0534 12.8534 10.9867 13.0267 10.9867 13.24C10.9867 13.3467 11.0001 13.44 11.0267 13.5467C11.0451 13.5956 11.0634 13.6389 11.0805 13.6792C11.1006 13.7267 11.119 13.77 11.1334 13.8134C11.3734 14.2534 11.7867 14.8267 12.3734 15.52C12.9734 16.2134 13.6134 16.92 14.3067 17.6267C14.3734 17.6933 14.4434 17.76 14.5133 17.8266C14.5833 17.8933 14.6534 17.96 14.7201 18.0267C15.2534 18.5467 15.2667 19.4 14.7334 19.9334Z" fill="#E20935"/>
<path d="M27.2801 13.3067C27.2801 13.8667 27.7334 14.3334 28.3068 14.3334C28.8668 14.3334 29.3334 13.8667 29.3334 13.3067C29.3334 7.44002 24.5601 2.66669 18.6934 2.66669C18.1334 2.66669 17.6801 3.14669 17.6801 3.70669C17.6801 4.26669 18.1334 4.73335 18.7068 4.73335C23.4268 4.73335 27.2801 8.57335 27.2801 13.3067Z" fill="#E20935"/>
<path d="M22.4667 13.3068C22.4667 13.8668 22.9201 14.3335 23.4934 14.3335C24.0667 14.3335 24.5334 13.8668 24.5334 13.2935C24.5334 12.2002 23.8001 10.6935 22.6534 9.48015C21.4267 8.18682 20.0267 7.46682 18.6934 7.46682C18.1334 7.46682 17.6667 7.93348 17.6667 8.49348C17.6667 9.05348 18.1201 9.52015 18.6934 9.52015C19.4401 9.52015 20.3334 10.0268 21.1467 10.8935C21.9734 11.7868 22.4667 12.8135 22.4667 13.3068Z" fill="#E20935"/>
<path d="M29.0935 25.5734C29.2269 25.2001 29.2935 24.8134 29.2935 24.4401C29.2935 24.0667 29.2135 23.7334 29.0802 23.4001C28.9335 23.0667 28.6935 22.7867 28.3469 22.5467L23.9335 19.4134C23.6002 19.1867 23.2935 19.0134 23.0002 18.8934C22.7069 18.7734 22.4402 18.7201 22.1869 18.7201C21.8535 18.7201 21.5469 18.8134 21.2402 19.0001C20.9335 19.1601 20.6135 19.4134 20.2802 19.7467L19.2669 20.7467C19.1202 20.8934 18.9469 20.9734 18.7202 20.9734C18.6002 20.9734 18.4935 20.9601 18.3869 20.9201C18.3441 20.9017 18.3041 20.8834 18.2669 20.8663C18.223 20.8462 18.183 20.8278 18.1469 20.8134C17.8669 20.6667 17.5335 20.4534 17.1602 20.1734L12.8002 24.5334C13.2935 24.9467 13.8135 25.3334 14.3335 25.7201C15.8535 26.8267 17.3869 27.7067 18.9202 28.3601C20.4535 29.0134 21.9069 29.3334 23.2669 29.3334C24.1869 29.3334 25.0402 29.1601 25.8269 28.8401C25.8335 28.8401 25.8402 28.8367 25.8469 28.8334C25.8535 28.8301 25.8602 28.8267 25.8669 28.8267C26.6802 28.4934 27.4002 27.9734 28.0535 27.2534C28.4402 26.8267 28.7335 26.3734 28.9602 25.8934C29.0135 25.7867 29.0535 25.6801 29.0935 25.5734Z" fill="#E20935"/>
</g>
</g>
</svg>
