<svg width="101" height="100" viewBox="0 0 101 100" fill="none" xmlns="http://www.w3.org/2000/svg">
<g id="check circle">
<path id="Vector" fill-rule="evenodd" clip-rule="evenodd" d="M50.4999 91.6663C73.5118 91.6663 92.1666 73.0115 92.1666 49.9997C92.1666 26.9878 73.5118 8.33301 50.4999 8.33301C27.4881 8.33301 8.83325 26.9878 8.83325 49.9997C8.83325 73.0115 27.4881 91.6663 50.4999 91.6663ZM69.6333 39.4184C70.6929 38.056 70.4475 36.0927 69.0852 35.0331C67.7228 33.9735 65.7595 34.2189 64.6999 35.5812L48.004 57.0473C47.6328 57.5247 46.9344 57.5866 46.485 57.1821L35.9238 47.677C34.6409 46.5225 32.665 46.6265 31.5105 47.9093C30.3559 49.1921 30.4599 51.168 31.7428 52.3226L42.3039 61.8277C45.4503 64.6594 50.3387 64.2258 52.9375 60.8845L69.6333 39.4184Z" fill="#E20935"/>
</g>
</svg>
