<svg width="20" height="20" viewBox="0 0 20 20" fill="none" xmlns="http://www.w3.org/2000/svg">
<g id="location">
<path id="Vector" d="M17.1832 7.04171C16.3082 3.19171 12.9498 1.45837 9.99984 1.45837C9.99984 1.45837 9.99984 1.45837 9.9915 1.45837C7.04984 1.45837 3.68317 3.18337 2.80817 7.03337C1.83317 11.3334 4.4665 14.975 6.84984 17.2667C7.73317 18.1167 8.8665 18.5417 9.99984 18.5417C11.1332 18.5417 12.2665 18.1167 13.1415 17.2667C15.5248 14.975 18.1582 11.3417 17.1832 7.04171ZM9.99984 11.2167C8.54984 11.2167 7.37484 10.0417 7.37484 8.59171C7.37484 7.14171 8.54984 5.96671 9.99984 5.96671C11.4498 5.96671 12.6248 7.14171 12.6248 8.59171C12.6248 10.0417 11.4498 11.2167 9.99984 11.2167Z" fill="#E20935"/>
</g>
</svg>
