<svg width="147" height="40" viewBox="0 0 147 40" fill="none" xmlns="http://www.w3.org/2000/svg">
<g id="Group 8">
<path id="Vector" fill-rule="evenodd" clip-rule="evenodd" d="M28.636 32.4838L3.75801 7.6058L0 11.3638L28.636 39.9998L45.7725 22.8633C51.0028 17.6331 51.0028 9.15319 45.7725 3.92295C40.5423 -1.30728 32.0624 -1.30728 26.8322 3.92295L16.3098 14.4454L29.5379 27.6736L33.2959 23.9156L23.8258 14.4454L30.5902 7.68096C33.7449 4.52621 38.8598 4.52621 42.0145 7.68096C45.1693 10.8357 45.1693 15.9506 42.0145 19.1053L28.636 32.4838Z" fill="#E20935"/>
<g id="Vector_2">
<path d="M107.844 18.3711L106.616 15.635H98.0949L96.8665 18.3711H93.8065L102.272 0H102.439L110.904 18.3711H107.844ZM99.1894 13.2115H105.522L102.361 6.17581L99.1894 13.2115Z" fill="#16171A"/>
<path d="M87.3182 18.6726C84.3587 18.6726 82.114 17.2878 81.0865 15.2106L83.3201 13.6136C84.1242 15.0207 85.6207 15.8248 87.3517 15.8248C89.373 15.8248 90.903 14.8532 90.903 13.4796C90.903 11.8156 88.5355 10.8105 86.4359 9.90586C84.3252 8.96776 81.9799 7.87331 81.9799 5.04785C81.9799 2.09954 84.5374 0.0446633 87.776 0.0446633C90.3446 0.0446633 92.2655 1.28429 93.0026 3.261L90.903 4.71282C90.3446 3.49552 89.105 2.81429 87.7984 2.81429C86.1455 2.81429 84.8277 3.84173 84.8277 5.11486C84.8277 6.52201 86.4917 7.02456 88.6806 7.96266C91.5284 9.21345 93.7397 10.5871 93.7397 13.4237C93.7397 16.6177 90.97 18.6726 87.3182 18.6726Z" fill="#16171A"/>
<path d="M75.8263 18.3711V0.368552H78.6517V18.3711H75.8263Z" fill="#16171A"/>
<path d="M70.7897 0.368552H73.8162L65.5073 18.7396H65.3175L57.0421 0.368552H60.0463L65.4068 12.5527L70.7897 0.368552Z" fill="#16171A"/>
<path d="M141.657 40C139.256 40 137.307 38.7085 136.571 37.2357L138.123 35.4571C138.836 36.556 140.173 37.3263 141.759 37.3263C142.881 37.3263 144.184 36.8619 144.184 35.7743C144.184 34.6641 142.677 34.2336 140.944 33.5085C139.494 32.8967 137.216 31.8771 137.216 29.4641C137.216 27.119 139.437 25.5103 141.963 25.5103C144.025 25.5103 145.872 26.6092 146.472 28.0027L144.592 29.5774C143.968 28.6257 142.949 28.1726 141.873 28.1726C140.808 28.1726 139.947 28.6711 139.947 29.4528C139.947 30.4384 141.204 30.8462 142.881 31.5486C145.237 32.5795 146.914 33.5538 146.914 35.6497C146.914 38.2893 144.41 40 141.657 40Z" fill="#16171A"/>
<path d="M130.544 28.082C131.869 26.1221 133.886 25.4197 135.676 25.4083L135.234 28.3992C135.109 28.3878 134.973 28.3878 134.837 28.3878C132.877 28.4105 130.555 29.4301 130.555 33.6898V39.5468H127.825V25.9521H130.385L130.544 28.082Z" fill="#16171A"/>
<path d="M118.184 39.9773C114.185 39.9773 110.945 36.7373 110.945 32.7495C110.945 28.7617 114.185 25.5217 118.184 25.5217C122.16 25.5217 125.389 28.7617 125.389 32.7495C125.389 36.7373 122.16 39.9773 118.184 39.9773ZM118.184 37.2357C120.654 37.2357 122.659 35.2305 122.659 32.7495C122.659 30.2685 120.654 28.2519 118.184 28.2519C115.692 28.2519 113.675 30.2685 113.675 32.7495C113.675 35.2305 115.692 37.2357 118.184 37.2357Z" fill="#16171A"/>
<path d="M107.116 39.7734C104.872 39.7734 103.649 38.1534 103.649 35.1626V28.6145H101.836V26.1334H102.289C103.286 26.1334 103.83 25.5443 103.83 24.4794V23.3125H106.379V25.9522H109.631V28.6145H106.379V35.1626C106.379 36.4087 106.878 37.1564 107.999 37.1564C108.441 37.1564 109.075 37.0092 109.653 36.8392V39.3769C108.962 39.6035 107.92 39.7734 107.116 39.7734Z" fill="#16171A"/>
<path d="M96.1378 40C92.252 40 88.8986 36.8845 88.8986 32.7495C88.8986 28.6258 92.2407 25.499 96.1265 25.499C97.7918 25.499 99.4459 26.0768 100.681 27.085L99.1513 29.3622C98.4376 28.6824 97.2934 28.2293 96.1265 28.2293C93.7361 28.2293 91.6289 30.1439 91.6289 32.7495C91.6289 35.3778 93.7474 37.2697 96.1265 37.2697C97.3047 37.2697 98.4602 36.7939 99.1966 36.1029L100.851 38.278C99.6045 39.3769 97.8711 40 96.1378 40Z" fill="#16171A"/>
<path d="M80.0735 39.9773C76.0744 39.9773 72.8344 36.7373 72.8344 32.7495C72.8344 28.7617 76.0744 25.5217 80.0735 25.5217C84.05 25.5217 87.2787 28.7617 87.2787 32.7495C87.2787 36.7373 84.05 39.9773 80.0735 39.9773ZM80.0735 37.2357C82.5432 37.2357 84.5484 35.2305 84.5484 32.7495C84.5484 30.2685 82.5432 28.2519 80.0735 28.2519C77.5812 28.2519 75.5646 30.2685 75.5646 32.7495C75.5646 35.2305 77.5812 37.2357 80.0735 37.2357Z" fill="#16171A"/>
<path d="M67.759 20.8541H70.4213V39.5468H67.9289L67.7816 37.6549C66.728 39.139 65.1193 39.9886 63.1255 39.9886C59.081 39.9886 56.498 36.522 56.498 32.7721C56.498 28.7164 59.3416 25.533 63.1368 25.533C65.074 25.533 66.6941 26.36 67.759 27.8327V20.8541ZM63.5673 37.2471C66.003 37.2471 67.759 35.3325 67.759 32.7495C67.759 30.0759 65.8557 28.2632 63.556 28.2632C61.1656 28.2632 59.2283 30.2005 59.2283 32.7381C59.2283 35.1965 61.0409 37.2471 63.5673 37.2471Z" fill="#16171A"/>
</g>
</g>
</svg>
