<svg width="20" height="20" viewBox="0 0 20 20" fill="none" xmlns="http://www.w3.org/2000/svg">
<g id="mail">
<g id="Vector">
<path d="M16.2501 6.66667C17.4007 6.66667 18.3334 5.73393 18.3334 4.58333C18.3334 3.43274 17.4007 2.5 16.2501 2.5C15.0995 2.5 14.1667 3.43274 14.1667 4.58333C14.1667 5.73393 15.0995 6.66667 16.2501 6.66667Z" fill="#E20935"/>
<path d="M17.2667 7.75833C16.6834 7.94167 16.0417 7.975 15.3751 7.80833C14.2584 7.51667 13.3501 6.625 13.0417 5.50833C12.8917 4.96667 12.8834 4.43333 12.9751 3.95C13.0834 3.41667 12.7084 2.91667 12.1751 2.91667H5.83341C3.33341 2.91667 1.66675 4.16667 1.66675 7.08333V12.9167C1.66675 15.8333 3.33341 17.0833 5.83341 17.0833H14.1667C16.6667 17.0833 18.3334 15.8333 18.3334 12.9167V8.55C18.3334 8 17.8001 7.58333 17.2667 7.75833ZM12.9334 9.29167L11.9501 10.075C11.4001 10.5167 10.7001 10.7333 10.0001 10.7333C9.30008 10.7333 8.59175 10.5167 8.05008 10.075L5.44175 7.99167C5.17508 7.775 5.13341 7.375 5.34175 7.10833C5.55841 6.84167 5.95008 6.79167 6.21675 7.00833L8.82508 9.09167C9.45841 9.6 10.5334 9.6 11.1667 9.09167L12.1501 8.30833C12.4167 8.09167 12.8167 8.13333 13.0251 8.40833C13.2417 8.675 13.2001 9.075 12.9334 9.29167Z" fill="#E20935"/>
</g>
</g>
</svg>
