<svg width="25" height="25" viewBox="0 0 25 25" fill="none" xmlns="http://www.w3.org/2000/svg">
<g id="remove_black">
<path id="Vector" d="M5.96967 17.9697C5.67678 18.2626 5.67678 18.7374 5.96967 19.0303C6.26256 19.3232 6.73744 19.3232 7.03033 19.0303L12.5 13.5607L17.9697 19.0303C18.2626 19.3232 18.7374 19.3232 19.0303 19.0303C19.3232 18.7374 19.3232 18.2626 19.0303 17.9697L13.5607 12.5L19.0303 7.03033C19.3232 6.73744 19.3232 6.26256 19.0303 5.96967C18.7374 5.67678 18.2626 5.67678 17.9697 5.96967L12.5 11.4393L7.03033 5.96967C6.73744 5.67678 6.26256 5.67678 5.96967 5.96967C5.67678 6.26256 5.67678 6.73744 5.96967 7.03033L11.4393 12.5L5.96967 17.9697Z" fill="#16171A" fill-opacity="0.4"/>
</g>
</svg>
