<svg width="64" height="64" viewBox="0 0 64 64" fill="none" xmlns="http://www.w3.org/2000/svg">
<g id="results">
<g id="Vector">
<path d="M32.2451 0.49353C32.5429 0.699186 32.7633 0.697541 33.0381 0.993685C34.2112 2.25394 35.1144 4.55728 36.271 5.91955C38.0133 6.6089 40.3331 6.8162 42.0096 7.53847C42.8882 7.91687 43.0379 8.67862 42.6957 9.52757L38.9116 14.1293L39.2538 20.1246C39.1666 20.8863 38.6928 21.2779 37.9607 21.4227L32.0575 19.2032C30.2412 19.557 28.2603 20.9044 26.5065 21.3009C25.4683 21.5362 24.802 20.9209 24.723 19.8893L25.0866 14.1293L21.189 9.2742C21.0722 8.57826 21.143 7.96952 21.8142 7.6125L27.7783 5.87841C28.897 4.52273 29.8101 2.23091 30.9602 0.99533C31.2349 0.700831 31.4554 0.700831 31.7532 0.495176H32.2451V0.49353ZM32.1201 4.31214L31.865 4.38782L29.2836 8.1834L24.8563 9.48314L27.6581 13.1455L27.566 17.9792L32.0559 16.3734L36.4306 17.9792L36.3385 13.1455L39.1403 9.48314L34.713 8.1834L32.1184 4.3105L32.1201 4.31214Z" fill="white"/>
<path d="M13.3742 23.1847C16.5445 22.7553 19.3842 24.779 19.682 28.0201C19.9716 31.1724 19.2756 33.3984 20.4536 36.6083C24.088 46.5044 37.9706 47.383 42.8997 38.0578C44.8641 34.3428 44.0053 31.972 44.3097 28.1369C44.6289 24.1028 48.9838 21.7698 52.48 23.9169C55.392 25.7053 55.1667 29.2952 55.0285 32.3274C54.6912 39.7392 51.478 46.0981 45.695 50.7047L45.6719 62.381C45.6144 62.9914 45.0155 63.5755 44.3821 63.5541L18.8528 63.4554C18.3658 63.1642 18.068 62.7249 18.0779 62.1375L18.0565 50.5814C13.0583 46.511 9.72007 40.7889 9.09488 34.2984C8.72963 30.5094 8.23935 23.8807 13.3742 23.1864V23.1847ZM42.8372 60.8378V49.8163C42.8372 48.895 44.9102 47.7005 45.6111 47.049C50.6307 42.388 52.9702 35.0782 52.1838 28.2784C51.8136 25.0801 47.4192 25.1821 47.1428 28.2603C46.7479 32.6762 47.6512 35.1095 45.3643 39.4134C38.9725 51.4435 20.8567 49.3688 17.3803 36.2348C16.5906 33.2503 17.1681 30.9503 16.8538 28.1419C16.5248 25.2117 12.2093 25.1508 11.8145 28.1534C11.6582 29.3495 11.7322 31.689 11.7997 32.9509C12.1024 38.6665 14.5933 43.6022 18.759 47.4192C19.2954 47.9095 20.9176 48.8621 20.9176 49.5712V60.8395H42.8388L42.8372 60.8378Z" fill="white"/>
<path d="M39.9876 32.4442C39.9876 36.9127 36.3648 40.5355 31.8963 40.5355C27.4278 40.5355 23.805 36.9127 23.805 32.4442C23.805 27.9757 27.4278 24.3529 31.8963 24.3529C36.3648 24.3529 39.9876 27.9757 39.9876 32.4442ZM37.1792 32.4475C37.1792 29.5288 34.8133 27.1629 31.8947 27.1629C28.976 27.1629 26.6101 29.5288 26.6101 32.4475C26.6101 35.3661 28.976 37.732 31.8947 37.732C34.8133 37.732 37.1792 35.3661 37.1792 32.4475Z" fill="white"/>
<path d="M52.7827 8.52232C53.6284 8.39728 54.5184 9.26433 54.3901 10.1297C54.344 10.4374 54.1055 10.7747 53.9179 11.0214C52.8567 12.4133 48.3521 16.9164 46.9602 17.9792C45.1915 19.3299 43.6417 17.6024 44.8115 16.0773C46.6558 13.6719 49.8476 11.4476 51.8268 9.05209C52.0917 8.84314 52.4438 8.57332 52.7843 8.52232H52.7827Z" fill="white"/>
<path d="M10.4901 8.90895C11.0824 8.34464 11.9395 8.39728 12.4841 8.98793L19.8647 16.3866C20.5968 17.8903 19.0075 19.1671 17.6502 18.1075C15.184 16.1809 12.9086 12.9513 10.449 10.8997C9.95209 10.3255 9.9307 9.44366 10.4901 8.9106V8.90895Z" fill="white"/>
</g>
</g>
</svg>
