<svg width="64" height="64" viewBox="0 0 64 64" fill="none" xmlns="http://www.w3.org/2000/svg">
<g id="team">
<path id="Vector" d="M38.2861 30.0108L40.628 30.8994C41.9019 29.6337 43.3307 28.3863 45.1508 28.0235C40.7258 23.9736 42.1689 16.4485 47.9044 14.5285C56.1531 11.7667 62.1964 22.2064 55.8311 28.0235C59.3164 28.853 62.172 32.3649 62.5246 35.9012C62.6122 36.7797 62.6713 40.956 62.4267 41.5634C62.2168 42.0851 60.6351 42.7496 60.0522 43.0023C58.6621 43.6057 54.7182 44.9427 53.3444 44.6207C52.3824 44.3944 52.2458 42.8678 53.1793 42.3848C55.5213 41.8406 58.0507 41.4574 60.0767 40.1285C60.6331 35.6199 59.2736 30.932 54.227 30.1595C52.7248 29.9292 50.2851 29.9557 48.7279 30.0006C46.5348 30.0637 44.3559 30.4897 42.8639 32.2202C45.8662 34.5478 47.509 37.8742 47.7495 41.6734C47.8372 43.039 47.933 46.2146 47.7353 47.4681C47.5722 48.5035 45.4545 49.2169 44.5353 49.6082C36.5108 53.0222 27.4285 53.0018 19.4163 49.5634C18.6968 49.2556 16.6993 48.4851 16.4303 47.8187C16.1612 47.1522 16.2489 42.5132 16.3162 41.5287C16.5689 37.864 18.2688 34.4439 21.1936 32.2202C20.3111 31.2194 18.8843 30.4184 17.5717 30.2003C16.096 29.9557 14.8833 30.1657 13.4993 30.1677C11.3918 30.1697 9.78775 29.7947 7.73934 30.8158C4.06647 32.6462 3.60991 36.5045 4.03182 40.2324C6.15361 41.3881 8.53628 41.8895 10.8802 42.3868C12.1195 43.4569 11.5386 44.745 9.83463 44.6553C8.2652 44.5718 5.58902 43.679 4.11539 43.0492C3.40609 42.7455 1.71845 42.0994 1.54928 41.3432C1.35361 40.4688 1.4331 37.0609 1.5187 36.0378C1.82036 32.4505 4.69832 28.8653 8.22851 28.0235C3.58953 23.943 5.38112 16.0469 11.3164 14.4062C19.5019 12.1437 25.0316 22.2615 18.9088 28.0235C20.7941 28.3578 22.1271 29.7397 23.5335 30.8994L25.7735 30.1595L24.253 28.7083C18.1832 21.4564 24.0797 10.8413 33.4372 11.8951C37.0387 12.3007 40.5546 15.3336 41.7123 18.7251C43.0963 22.7832 41.8142 27.5588 38.2861 30.0108ZM31.2359 14.3389C20.3437 15.4436 23.3806 32.373 33.9814 29.595C43.1697 27.1878 40.6137 13.3871 31.2359 14.3389ZM9.65526 25.9873C15.1442 31.4823 23.0769 22.2553 16.8481 17.651C11.3857 13.6133 4.88991 21.2158 9.65526 25.9873ZM54.4043 18.1606C48.9093 12.6574 40.9827 21.8823 47.2114 26.4969C52.6474 30.5264 59.1737 22.9361 54.4043 18.1606ZM45.1263 46.6141C45.4178 41.3595 45.43 36.4006 40.3162 33.5471C37.428 31.9369 31.3174 32.0429 27.9829 32.2915C24.0655 32.5809 20.5332 35.1165 19.3246 38.8913C18.548 41.3208 19.0311 44.0826 18.9353 46.6141C27.1411 50.6823 36.9246 50.6885 45.1263 46.6141Z" fill="white"/>
</g>
</svg>
