<svg width="24" height="24" viewBox="0 0 24 24" fill="none" xmlns="http://www.w3.org/2000/svg">
<g id="tick">
<path id="Vector" d="M20.6249 5.64846C20.8281 5.83596 20.9374 6.06643 20.9531 6.33986C20.9687 6.6133 20.8827 6.8594 20.6952 7.07815L10.1952 18.75C10.0077 18.9531 9.77337 19.0586 9.49212 19.0664C9.21087 19.0742 8.96868 18.9844 8.76556 18.7969L2.67181 13.0781C2.48431 12.8906 2.38275 12.668 2.36712 12.4102C2.3515 12.1524 2.42181 11.9219 2.57806 11.7188C2.76556 11.4844 3.00384 11.3555 3.2929 11.3321C3.58196 11.3086 3.82806 11.3906 4.03118 11.5781L8.76556 15.8438C8.96868 16.0156 9.20697 16.0938 9.4804 16.0781C9.75384 16.0625 9.98431 15.9531 10.1718 15.75L19.2187 5.74221C19.3906 5.53908 19.6132 5.4258 19.8867 5.40236C20.1601 5.37893 20.4062 5.46096 20.6249 5.64846Z" fill="#E20935"/>
</g>
</svg>
