<svg width="64" height="64" viewBox="0 0 64 64" fill="none" xmlns="http://www.w3.org/2000/svg">
<g id="visa">
<path id="Vector" d="M48.5938 19.5C48.6771 19.5417 48.7604 19.5833 48.8438 19.625C48.9271 19.6667 49.0104 19.6875 49.0938 19.6875C49.2604 19.6875 49.4271 19.6354 49.5938 19.5313C49.7604 19.4271 49.8854 19.3125 49.9688 19.1875L51.9688 15.6875C52.0104 15.6042 52.0417 15.5208 52.0625 15.4375C52.0833 15.3542 52.0938 15.2708 52.0938 15.1875C52.0938 14.8958 52 14.6563 51.8125 14.4688C51.625 14.2813 51.3854 14.1875 51.0938 14.1875C50.9271 14.1875 50.7604 14.2292 50.5938 14.3125C50.4271 14.3958 50.3021 14.5208 50.2188 14.6875L48.2188 18.1875C48.1771 18.2292 48.1458 18.2917 48.125 18.375C48.1042 18.4583 48.0938 18.5625 48.0938 18.6875C48.0938 18.8542 48.1354 19.0104 48.2188 19.1563C48.3021 19.3021 48.4271 19.4167 48.5938 19.5ZM46.7813 12.6875C46.7396 12.7708 46.7083 12.8542 46.6875 12.9375C46.6667 13.0208 46.6563 13.1042 46.6563 13.1875C46.6563 13.4792 46.75 13.7188 46.9375 13.9063C47.125 14.0938 47.3646 14.1875 47.6563 14.1875C47.8229 14.1875 47.9792 14.1458 48.125 14.0625C48.2708 13.9792 48.3854 13.8542 48.4688 13.6875L49.4688 11.9375C49.5104 11.8958 49.5521 11.8333 49.5938 11.75C49.6354 11.6667 49.6563 11.5625 49.6563 11.4375C49.6563 11.1875 49.5521 10.9583 49.3438 10.75C49.1354 10.5417 48.9063 10.4375 48.6563 10.4375C48.4479 10.4375 48.2708 10.4896 48.125 10.5938C47.9792 10.6979 47.8646 10.8125 47.7813 10.9375L46.7813 12.6875ZM52.0313 21.5C52.1146 21.5417 52.1979 21.5833 52.2813 21.625C52.3646 21.6667 52.4479 21.6875 52.5313 21.6875C52.7396 21.6875 52.9167 21.6354 53.0625 21.5313C53.2083 21.4271 53.3229 21.3125 53.4063 21.1875L54.4063 19.4375C54.4479 19.3542 54.4792 19.2708 54.5 19.1875C54.5208 19.1042 54.5313 19.0208 54.5313 18.9375C54.5313 18.6458 54.4375 18.4063 54.25 18.2188C54.0625 18.0313 53.8229 17.9375 53.5313 17.9375C53.3646 17.9375 53.2083 17.9792 53.0625 18.0625C52.9167 18.1458 52.8021 18.2708 52.7188 18.4375L51.7188 20.1875C51.6771 20.2292 51.6354 20.2917 51.5938 20.375C51.5521 20.4583 51.5313 20.5625 51.5313 20.6875C51.5313 20.8542 51.5833 21.0104 51.6875 21.1563C51.7917 21.3021 51.9063 21.4167 52.0313 21.5ZM46.1563 15.8125C46.0729 15.7708 45.9896 15.7396 45.9063 15.7188C45.8229 15.6979 45.7396 15.6875 45.6563 15.6875C45.3646 15.6875 45.125 15.7813 44.9375 15.9688C44.75 16.1563 44.6563 16.3958 44.6563 16.6875C44.6563 16.9375 44.75 17.1667 44.9375 17.375C45.125 17.5833 45.3646 17.6875 45.6563 17.6875C45.8229 17.6875 45.9792 17.6354 46.125 17.5313C46.2708 17.4271 46.3854 17.3125 46.4688 17.1875C46.5104 17.1042 46.5521 17.0208 46.5938 16.9375C46.6354 16.8542 46.6563 16.7708 46.6563 16.6875C46.6563 16.4792 46.6042 16.3021 46.5 16.1563C46.3958 16.0104 46.2813 15.8958 46.1563 15.8125ZM55.9063 14.5625C56.1979 14.6458 56.3958 14.8125 56.5 15.0625C56.6042 15.3125 56.5938 15.5625 56.4688 15.8125C56.3854 16.1042 56.2188 16.3021 55.9688 16.4063C55.7188 16.5104 55.4479 16.5 55.1563 16.375C54.9063 16.2917 54.7292 16.125 54.625 15.875C54.5208 15.625 54.5313 15.3542 54.6563 15.0625C54.7396 14.8125 54.9063 14.6354 55.1563 14.5313C55.4063 14.4271 55.6563 14.4375 55.9063 14.5625ZM24.9688 10C25.2604 10 25.5 9.90625 25.6875 9.71875C25.875 9.53125 25.9688 9.29167 25.9688 9V7C25.9688 6.70833 25.875 6.46875 25.6875 6.28125C25.5 6.09375 25.2604 6 24.9688 6C24.6771 6 24.4375 6.09375 24.25 6.28125C24.0625 6.46875 23.9688 6.70833 23.9688 7V9C23.9688 9.29167 24.0625 9.53125 24.25 9.71875C24.4375 9.90625 24.6771 10 24.9688 10ZM33.9688 7C33.9688 7.29167 33.875 7.53125 33.6875 7.71875C33.5 7.90625 33.2604 8 32.9688 8C32.6771 8 32.4375 7.90625 32.25 7.71875C32.0625 7.53125 31.9688 7.29167 31.9688 7C31.9688 6.70833 32.0625 6.46875 32.25 6.28125C32.4375 6.09375 32.6771 6 32.9688 6C33.2604 6 33.5 6.09375 33.6875 6.28125C33.875 6.46875 33.9688 6.70833 33.9688 7ZM2.96875 62H40.9688C42.3438 62 43.5208 61.5104 44.5 60.5313C45.4792 59.5521 45.9688 58.375 45.9688 57V42.0625L61.9063 14.5C61.9479 14.4167 61.9792 14.3333 62 14.25C62.0208 14.1667 62.0313 14.0833 62.0313 14C62.0313 13.8333 61.9792 13.6667 61.875 13.5C61.7708 13.3333 61.6563 13.2083 61.5313 13.125L42.4688 2.125C42.3854 2.08333 42.3021 2.05208 42.2188 2.03125C42.1354 2.01042 42.0521 2 41.9688 2C41.8021 2 41.6354 2.04167 41.4688 2.125C41.3021 2.20833 41.1771 2.33333 41.0938 2.5L37.9688 7.9375V3C37.9688 2.70833 37.875 2.46875 37.6875 2.28125C37.5 2.09375 37.2604 2 36.9688 2H14.9688C14.6771 2 14.4375 2.09375 14.25 2.28125C14.0625 2.46875 13.9688 2.70833 13.9688 3V12H2.96875C2.67708 12 2.4375 12.0938 2.25 12.2813C2.0625 12.4688 1.96875 12.7083 1.96875 13V61C1.96875 61.2917 2.0625 61.5313 2.25 61.7188C2.4375 61.9063 2.67708 62 2.96875 62ZM41.9688 33L45.4688 26.9375L47.2188 27.9375L41.9688 37V33ZM41.9688 41L49.4063 28.0625C49.4479 28.0208 49.4792 27.9583 49.5 27.875C49.5208 27.7917 49.5313 27.6875 49.5313 27.5625C49.5313 27.3958 49.4896 27.2396 49.4063 27.0938C49.3229 26.9479 49.1979 26.8333 49.0313 26.75L45.5938 24.75C45.5104 24.7083 45.4271 24.6667 45.3438 24.625C45.2604 24.5833 45.1771 24.5625 45.0938 24.5625C44.9271 24.5625 44.7604 24.6146 44.5938 24.7188C44.4271 24.8229 44.3021 24.9375 44.2188 25.0625L41.9688 29V25L42.4688 24.0625C42.5104 24.0208 42.5521 23.9583 42.5938 23.875C42.6354 23.7917 42.6563 23.6875 42.6563 23.5625C42.6563 23.3542 42.5938 23.1667 42.4688 23C42.3438 22.8333 42.1771 22.7083 41.9688 22.625V20.3125L52.6563 26.5L41.9688 45V41ZM43.9688 57C43.9688 57.8333 43.6771 58.5417 43.0938 59.125C42.5104 59.7083 41.8021 60 40.9688 60C41.2604 59.5833 41.5 59.125 41.6875 58.625C41.875 58.125 41.9688 57.5833 41.9688 57V49L43.9688 45.5625V57ZM53.6563 24.75L41.9688 18V17L47.5313 7.375L59.6563 14.375L53.6563 24.75ZM42.3438 4.375L45.7813 6.375L41.2188 14.3125C40.8438 13.7292 40.375 13.25 39.8125 12.875C39.25 12.5 38.6146 12.2292 37.9063 12.0625L42.3438 4.375ZM35.9688 11.375L35.5938 12H33.9688V11C33.9688 10.7083 33.875 10.4688 33.6875 10.2813C33.5 10.0938 33.2604 10 32.9688 10C32.6771 10 32.4375 10.0938 32.25 10.2813C32.0625 10.4688 31.9688 10.7083 31.9688 11V12H29.9688V9C29.9688 8.70833 29.875 8.46875 29.6875 8.28125C29.5 8.09375 29.2604 8 28.9688 8C28.6771 8 28.4375 8.09375 28.25 8.28125C28.0625 8.46875 27.9688 8.70833 27.9688 9V12H21.9688V4H35.9688V11.375ZM15.9688 4H19.9688V12H15.9688V4ZM3.96875 14H36.9688C37.8021 14 38.5104 14.2917 39.0938 14.875C39.6771 15.4583 39.9688 16.1667 39.9688 17V57C39.9688 57.8333 39.6771 58.5417 39.0938 59.125C38.5104 59.7083 37.8021 60 36.9688 60H3.96875V14ZM28.9688 50H14.9688C14.6771 50 14.4375 50.0938 14.25 50.2813C14.0625 50.4688 13.9688 50.7083 13.9688 51C13.9688 51.2917 14.0625 51.5313 14.25 51.7188C14.4375 51.9063 14.6771 52 14.9688 52H28.9688C29.2604 52 29.5 51.9063 29.6875 51.7188C29.875 51.5313 29.9688 51.2917 29.9688 51C29.9688 50.7083 29.875 50.4688 29.6875 50.2813C29.5 50.0938 29.2604 50 28.9688 50ZM31.9688 18H11.9688C11.6771 18 11.4375 18.0938 11.25 18.2813C11.0625 18.4688 10.9688 18.7083 10.9688 19C10.9688 19.2917 11.0625 19.5313 11.25 19.7188C11.4375 19.9063 11.6771 20 11.9688 20H31.9688C32.2604 20 32.5 19.9063 32.6875 19.7188C32.875 19.5313 32.9688 19.2917 32.9688 19C32.9688 18.7083 32.875 18.4688 32.6875 18.2813C32.5 18.0938 32.2604 18 31.9688 18ZM21.9688 24C18.9271 24 16.3333 25.0729 14.1875 27.2188C12.0417 29.3646 10.9688 31.9583 10.9688 35C10.9688 38.0417 12.0417 40.6354 14.1875 42.7813C16.3333 44.9271 18.9271 46 21.9688 46C25.0104 46 27.6042 44.9271 29.75 42.7813C31.8958 40.6354 32.9688 38.0417 32.9688 35C32.9688 31.9583 31.8958 29.3646 29.75 27.2188C27.6042 25.0729 25.0104 24 21.9688 24ZM22.9688 32C23.5521 31.9583 24.1354 31.8958 24.7188 31.8125C25.3021 31.7292 25.8646 31.625 26.4063 31.5L26.2813 31.5625C26.4479 31.8958 26.5833 32.2708 26.6875 32.6875C26.7917 33.1042 26.8646 33.5208 26.9063 33.9375V34H22.9688V32ZM22.9688 30V27.5C23.4271 27.8333 23.8438 28.1771 24.2188 28.5313C24.5938 28.8854 24.9271 29.2708 25.2188 29.6875C24.8854 29.7708 24.5313 29.8333 24.1563 29.875C23.7813 29.9167 23.4063 29.9583 23.0313 30H22.9688ZM20.9688 27.5V30C20.5521 29.9583 20.1458 29.9167 19.75 29.875C19.3542 29.8333 18.9688 29.7708 18.5938 29.6875H18.7188C19.0104 29.2708 19.3438 28.8854 19.7188 28.5313C20.0938 28.1771 20.4896 27.8542 20.9063 27.5625L20.9688 27.5ZM20.9688 32V34H17.0313C17.0729 33.5417 17.1563 33.1042 17.2813 32.6875C17.4063 32.2708 17.5521 31.875 17.7188 31.5L17.6563 31.5625C18.1563 31.6458 18.6771 31.7292 19.2188 31.8125C19.7604 31.8958 20.3229 31.9583 20.9063 32H20.9688ZM15.0313 34H13.0313C13.1146 33.3333 13.2604 32.6875 13.4688 32.0625C13.6771 31.4375 13.9479 30.8542 14.2813 30.3125C14.4896 30.4375 14.7083 30.5521 14.9375 30.6563C15.1667 30.7604 15.4063 30.8542 15.6563 30.9375L15.7188 31C15.5521 31.4167 15.4063 31.875 15.2813 32.375C15.1563 32.875 15.0729 33.3958 15.0313 33.9375V34ZM15.0313 36C15.0729 36.5417 15.1563 37.0729 15.2813 37.5938C15.4063 38.1146 15.5729 38.625 15.7813 39.125L15.7188 39C15.4271 39.125 15.1563 39.2396 14.9063 39.3438C14.6563 39.4479 14.4271 39.5625 14.2188 39.6875H14.2813C13.9479 39.1458 13.6771 38.5729 13.4688 37.9688C13.2604 37.3646 13.1146 36.7292 13.0313 36.0625V36H15.0313ZM17.0313 36H20.9688V38C20.3854 38.0417 19.8021 38.1042 19.2188 38.1875C18.6354 38.2708 18.0729 38.375 17.5313 38.5L17.6563 38.4375C17.4896 38.1042 17.3542 37.7292 17.25 37.3125C17.1458 36.8958 17.0729 36.4792 17.0313 36.0625V36ZM20.9688 40V42.5C20.5104 42.1667 20.0938 41.8229 19.7188 41.4688C19.3438 41.1146 19.0104 40.7292 18.7188 40.3125C19.0521 40.2292 19.4063 40.1667 19.7813 40.125C20.1563 40.0833 20.5313 40.0417 20.9063 40H20.9688ZM22.9688 42.5V40C23.3854 40.0417 23.7917 40.0833 24.1875 40.125C24.5833 40.1667 24.9688 40.2292 25.3438 40.3125H25.2188C24.9271 40.7292 24.5938 41.1146 24.2188 41.4688C23.8438 41.8229 23.4479 42.1458 23.0313 42.4375L22.9688 42.5ZM22.9688 38V36H26.9063C26.8646 36.4583 26.7813 36.8958 26.6563 37.3125C26.5313 37.7292 26.3854 38.125 26.2188 38.5L26.2813 38.4375C25.7813 38.3542 25.2604 38.2708 24.7188 38.1875C24.1771 38.1042 23.6146 38.0417 23.0313 38H22.9688ZM28.9063 36H30.9063C30.8229 36.6667 30.6771 37.3125 30.4688 37.9375C30.2604 38.5625 29.9896 39.1458 29.6563 39.6875C29.4479 39.5625 29.2292 39.4479 29 39.3438C28.7708 39.2396 28.5313 39.1458 28.2813 39.0625L28.2188 39C28.3854 38.5833 28.5313 38.125 28.6563 37.625C28.7813 37.125 28.8646 36.6042 28.9063 36.0625V36ZM28.9063 34C28.8646 33.4583 28.7813 32.9271 28.6563 32.4063C28.5313 31.8854 28.3646 31.375 28.1563 30.875L28.2188 31C28.5104 30.875 28.7813 30.7604 29.0313 30.6563C29.2813 30.5521 29.5104 30.4375 29.7188 30.3125H29.6563C29.9896 30.8542 30.2604 31.4271 30.4688 32.0313C30.6771 32.6354 30.8229 33.2708 30.9063 33.9375V34H28.9063ZM28.4063 28.75C28.2813 28.7917 28.125 28.8542 27.9375 28.9375C27.75 29.0208 27.5521 29.0833 27.3438 29.125L27.2813 29.1875C26.9479 28.6458 26.5938 28.1563 26.2188 27.7188C25.8438 27.2813 25.4271 26.875 24.9688 26.5C25.6354 26.75 26.2604 27.0625 26.8438 27.4375C27.4271 27.8125 27.9479 28.25 28.4063 28.75ZM18.9688 26.5C18.5104 26.875 18.0938 27.2813 17.7188 27.7188C17.3438 28.1563 16.9896 28.625 16.6563 29.125V29.1875C16.4063 29.1042 16.1875 29.0208 16 28.9375C15.8125 28.8542 15.6354 28.7708 15.4688 28.6875L15.5313 28.75C15.9896 28.25 16.5104 27.8125 17.0938 27.4375C17.6771 27.0625 18.2813 26.75 18.9063 26.5H18.9688ZM15.5313 41.25C15.6563 41.2083 15.8125 41.1458 16 41.0625C16.1875 40.9792 16.3854 40.9167 16.5938 40.875L16.6563 40.8125C16.9896 41.3542 17.3438 41.8438 17.7188 42.2813C18.0938 42.7188 18.5104 43.125 18.9688 43.5C18.3021 43.25 17.6771 42.9375 17.0938 42.5625C16.5104 42.1875 15.9896 41.75 15.5313 41.25ZM24.9688 43.5C25.4271 43.125 25.8438 42.7188 26.2188 42.2813C26.5938 41.8438 26.9479 41.375 27.2813 40.875V40.8125C27.5313 40.8958 27.75 40.9792 27.9375 41.0625C28.125 41.1458 28.3021 41.2292 28.4688 41.3125L28.4063 41.25C27.9479 41.75 27.4271 42.1875 26.8438 42.5625C26.2604 42.9375 25.6563 43.25 25.0313 43.5H24.9688ZM23.9688 54H19.9688C19.6771 54 19.4375 54.0938 19.25 54.2813C19.0625 54.4688 18.9688 54.7083 18.9688 55C18.9688 55.2917 19.0625 55.5313 19.25 55.7188C19.4375 55.9063 19.6771 56 19.9688 56H23.9688C24.2604 56 24.5 55.9063 24.6875 55.7188C24.875 55.5313 24.9688 55.2917 24.9688 55C24.9688 54.7083 24.875 54.4688 24.6875 54.2813C24.5 54.0938 24.2604 54 23.9688 54Z" fill="white"/>
</g>
</svg>
